<svg id="visual" viewBox="0 0 900 600" width="900" height="600" xmlns="http://www.w3.org/2000/svg" xmlns:xlink="http://www.w3.org/1999/xlink" version="1.1"><rect x="0" y="0" width="900" height="600" fill="#001220"></rect><path d="M0 442L21.5 435.2C43 428.3 86 414.7 128.8 414.7C171.7 414.7 214.3 428.3 257.2 423.3C300 418.3 343 394.7 385.8 383.5C428.7 372.3 471.3 373.7 514.2 377.8C557 382 600 389 642.8 396.3C685.7 403.7 728.3 411.3 771.2 418.3C814 425.3 857 431.7 878.5 434.8L900 438L900 601L878.5 601C857 601 814 601 771.2 601C728.3 601 685.7 601 642.8 601C600 601 557 601 514.2 601C471.3 601 428.7 601 385.8 601C343 601 300 601 257.2 601C214.3 601 171.7 601 128.8 601C86 601 43 601 21.5 601L0 601Z" fill="#cc5022"></path><path d="M0 442L21.5 446C43 450 86 458 128.8 463.8C171.7 469.7 214.3 473.3 257.2 472C300 470.7 343 464.3 385.8 454.3C428.7 444.3 471.3 430.7 514.2 426.2C557 421.7 600 426.3 642.8 425.5C685.7 424.7 728.3 418.3 771.2 422.3C814 426.3 857 440.7 878.5 447.8L900 455L900 601L878.5 601C857 601 814 601 771.2 601C728.3 601 685.7 601 642.8 601C600 601 557 601 514.2 601C471.3 601 428.7 601 385.8 601C343 601 300 601 257.2 601C214.3 601 171.7 601 128.8 601C86 601 43 601 21.5 601L0 601Z" fill="#ac451e"></path><path d="M0 509L21.5 502.3C43 495.7 86 482.3 128.8 475C171.7 467.7 214.3 466.3 257.2 461.3C300 456.3 343 447.7 385.8 450.7C428.7 453.7 471.3 468.3 514.2 469.2C557 470 600 457 642.8 461.3C685.7 465.7 728.3 487.3 771.2 494.2C814 501 857 493 878.5 489L900 485L900 601L878.5 601C857 601 814 601 771.2 601C728.3 601 685.7 601 642.8 601C600 601 557 601 514.2 601C471.3 601 428.7 601 385.8 601C343 601 300 601 257.2 601C214.3 601 171.7 601 128.8 601C86 601 43 601 21.5 601L0 601Z" fill="#8d3a1a"></path><path d="M0 534L21.5 526.5C43 519 86 504 128.8 503.7C171.7 503.3 214.3 517.7 257.2 520C300 522.3 343 512.7 385.8 513.2C428.7 513.7 471.3 524.3 514.2 524C557 523.7 600 512.3 642.8 512.5C685.7 512.7 728.3 524.3 771.2 520.8C814 517.3 857 498.7 878.5 489.3L900 480L900 601L878.5 601C857 601 814 601 771.2 601C728.3 601 685.7 601 642.8 601C600 601 557 601 514.2 601C471.3 601 428.7 601 385.8 601C343 601 300 601 257.2 601C214.3 601 171.7 601 128.8 601C86 601 43 601 21.5 601L0 601Z" fill="#6f2f16"></path><path d="M0 557L21.5 552.3C43 547.7 86 538.3 128.8 538.5C171.7 538.7 214.3 548.3 257.2 552.3C300 556.3 343 554.7 385.8 549.8C428.7 545 471.3 537 514.2 540C557 543 600 557 642.8 559.7C685.7 562.3 728.3 553.7 771.2 553.8C814 554 857 563 878.5 567.5L900 572L900 601L878.5 601C857 601 814 601 771.2 601C728.3 601 685.7 601 642.8 601C600 601 557 601 514.2 601C471.3 601 428.7 601 385.8 601C343 601 300 601 257.2 601C214.3 601 171.7 601 128.8 601C86 601 43 601 21.5 601L0 601Z" fill="#522412"></path></svg>