<svg id="visual" viewBox="0 0 960 540" width="960" height="540" xmlns="http://www.w3.org/2000/svg" xmlns:xlink="http://www.w3.org/1999/xlink" version="1.1"><rect x="0" y="0" width="960" height="540" fill="#001220"></rect><path d="M0 398L22.8 391.8C45.7 385.7 91.3 373.3 137 373.3C182.7 373.3 228.3 385.7 274 381C319.7 376.3 365.3 354.7 411.2 344.5C457 334.3 503 335.7 548.8 339.7C594.7 343.7 640.3 350.3 686 357C731.7 363.7 777.3 370.3 823 376.5C868.7 382.7 914.3 388.3 937.2 391.2L960 394L960 541L937.2 541C914.3 541 868.7 541 823 541C777.3 541 731.7 541 686 541C640.3 541 594.7 541 548.8 541C503 541 457 541 411.2 541C365.3 541 319.7 541 274 541C228.3 541 182.7 541 137 541C91.3 541 45.7 541 22.8 541L0 541Z" fill="#cc5022"></path><path d="M0 398L22.8 401.7C45.7 405.3 91.3 412.7 137 417.8C182.7 423 228.3 426 274 424.7C319.7 423.3 365.3 417.7 411.2 408.7C457 399.7 503 387.3 548.8 383.3C594.7 379.3 640.3 383.7 686 383C731.7 382.3 777.3 376.7 823 380.3C868.7 384 914.3 397 937.2 403.5L960 410L960 541L937.2 541C914.3 541 868.7 541 823 541C777.3 541 731.7 541 686 541C640.3 541 594.7 541 548.8 541C503 541 457 541 411.2 541C365.3 541 319.7 541 274 541C228.3 541 182.7 541 137 541C91.3 541 45.7 541 22.8 541L0 541Z" fill="#ac451e"></path><path d="M0 458L22.8 452C45.7 446 91.3 434 137 427.3C182.7 420.7 228.3 419.3 274 414.8C319.7 410.3 365.3 402.7 411.2 405.3C457 408 503 421 548.8 421.7C594.7 422.3 640.3 410.7 686 414.7C731.7 418.7 777.3 438.3 823 444.5C868.7 450.7 914.3 443.3 937.2 439.7L960 436L960 541L937.2 541C914.3 541 868.7 541 823 541C777.3 541 731.7 541 686 541C640.3 541 594.7 541 548.8 541C503 541 457 541 411.2 541C365.3 541 319.7 541 274 541C228.3 541 182.7 541 137 541C91.3 541 45.7 541 22.8 541L0 541Z" fill="#8d3a1a"></path><path d="M0 480L22.8 473.3C45.7 466.7 91.3 453.3 137 453.2C182.7 453 228.3 466 274 468.2C319.7 470.3 365.3 461.7 411.2 462C457 462.3 503 471.7 548.8 471.3C594.7 471 640.3 461 686 461.2C731.7 461.3 777.3 471.7 823 468.5C868.7 465.3 914.3 448.7 937.2 440.3L960 432L960 541L937.2 541C914.3 541 868.7 541 823 541C777.3 541 731.7 541 686 541C640.3 541 594.7 541 548.8 541C503 541 457 541 411.2 541C365.3 541 319.7 541 274 541C228.3 541 182.7 541 137 541C91.3 541 45.7 541 22.8 541L0 541Z" fill="#6f2f16"></path><path d="M0 501L22.8 496.8C45.7 492.7 91.3 484.3 137 484.5C182.7 484.7 228.3 493.3 274 497C319.7 500.7 365.3 499.3 411.2 495C457 490.7 503 483.3 548.8 486C594.7 488.7 640.3 501.3 686 503.8C731.7 506.3 777.3 498.7 823 498.8C868.7 499 914.3 507 937.2 511L960 515L960 541L937.2 541C914.3 541 868.7 541 823 541C777.3 541 731.7 541 686 541C640.3 541 594.7 541 548.8 541C503 541 457 541 411.2 541C365.3 541 319.7 541 274 541C228.3 541 182.7 541 137 541C91.3 541 45.7 541 22.8 541L0 541Z" fill="#522412"></path></svg>